<svg width="288" height="57" viewBox="0 0 288 57" fill="none" xmlns="http://www.w3.org/2000/svg">
<path d="M43.66 12.1L40 9.76C38.86 10.06 37.72 10.06 36.82 10.06H6.7C4.72 10.06 2.38 9.88 0.700001 9.7V14.98C2.26 14.92 4.3 14.8 6.7 14.8H37.36C36.52 20.56 33.76 28.9 29.5 34.36C24.46 40.78 17.74 45.88 6.1 48.82L10.18 53.32C21.22 49.84 28.36 44.26 33.82 37.24C38.56 31.06 41.5 21.4 42.76 15.1C43 13.96 43.24 12.94 43.66 12.1ZM70.06 5.92L67.36 9.94C70.9 11.98 77.38 16.3 80.26 18.46L83.08 14.38C80.5 12.46 73.6 7.9 70.06 5.92ZM61.06 48.82L63.82 53.68C69.4 52.54 77.68 49.72 83.74 46.24C93.28 40.6 101.62 32.86 106.78 24.76L103.9 19.84C99.04 28.3 91.12 36.1 81.16 41.8C75.1 45.28 67.66 47.68 61.06 48.82ZM61 19.42L58.36 23.5C61.96 25.36 68.5 29.56 71.44 31.72L74.2 27.52C71.56 25.6 64.54 21.34 61 19.42ZM157.06 3.28L153.88 4.6C155.5 6.88 157.54 10.48 158.74 12.94L161.98 11.5C160.72 9.04 158.56 5.38 157.06 3.28ZM163.66 0.879997L160.48 2.2C162.16 4.48 164.14 7.84 165.46 10.48L168.7 9.04C167.56 6.82 165.22 3.04 163.66 0.879997ZM134.38 10.6C134.56 11.32 135.04 13.72 135.7 16.96C130.06 17.86 124.84 18.64 122.5 18.88C120.58 19.06 118.96 19.18 117.46 19.3L118.54 24.64C120.28 24.22 121.72 23.92 123.34 23.62C125.68 23.2 130.9 22.36 136.6 21.46C137.32 25.18 138.16 29.44 138.94 33.52C132.1 34.6 125.56 35.62 122.56 36.04C121 36.28 118.72 36.52 117.28 36.58L118.36 41.86C119.68 41.5 121.36 41.14 123.7 40.72C126.58 40.18 133 39.16 139.84 38.02C140.98 43.96 141.88 48.82 142.12 50.14C142.54 51.88 142.72 53.74 143.02 55.78L148.54 54.76C147.94 53.02 147.46 50.98 147.04 49.3C146.74 47.92 145.78 43.12 144.58 37.24C150.46 36.28 156.1 35.38 159.4 34.9C161.62 34.54 163.54 34.18 164.8 34.06L163.78 29.02C162.52 29.38 160.78 29.74 158.5 30.22C155.5 30.76 149.74 31.72 143.68 32.74C142.9 28.66 142.06 24.46 141.34 20.74C147.04 19.78 152.56 18.94 155.26 18.52C156.88 18.28 158.68 17.98 159.58 17.92L158.62 12.88C157.6 13.18 156.04 13.54 154.3 13.84C151.78 14.32 146.26 15.28 140.44 16.24C139.78 12.82 139.3 10.42 139.24 9.76C139 8.44 138.76 6.7 138.64 5.62L133.3 6.52C133.72 7.78 134.08 9.1 134.38 10.6ZM217.9 3.64L214.72 5.02C216.34 7.24 218.32 10.78 219.52 13.18L218.5 12.58C217.54 12.94 216.16 13.12 214.54 13.12H198.34C198.76 12.4 199.18 11.68 199.54 11.02C200.14 9.88 201.22 7.84 202.24 6.28L196.78 4.54C196.42 6.1 195.46 8.2 194.86 9.28C192.1 14.74 185.92 23.8 175.6 30.22L179.62 33.28C186.34 28.66 191.68 22.78 195.52 17.44H215.8C214.6 22.36 211.54 28.78 207.64 34.06C203.44 31.12 198.94 28.18 194.98 25.9L191.74 29.26C195.58 31.66 200.2 34.78 204.46 37.9C199.12 43.72 191.38 49.24 181.24 52.3L185.56 56.08C195.7 52.24 203.08 46.78 208.42 40.84C210.94 42.76 213.16 44.62 214.96 46.24L218.5 42.1C216.58 40.54 214.24 38.74 211.66 36.88C216.16 30.76 219.46 23.68 221.08 18.16C221.38 17.2 221.98 15.82 222.46 14.98L219.64 13.3L222.82 11.86C221.56 9.4 219.4 5.8 217.9 3.64ZM224.5 1.24L221.32 2.56C223 4.84 224.98 8.2 226.3 10.84L229.54 9.4C228.4 7.18 226.06 3.4 224.5 1.24ZM265.18 3.94H259.66C259.9 5.26 259.96 7.54 259.96 9.22V13.06H248.2C246.22 13.06 242.86 13 240.94 12.76V17.8C242.8 17.68 246.22 17.56 248.32 17.56H273.22C271.18 20.38 266.38 25.12 261.04 28.54C255.58 32.08 248.08 36.04 236.74 38.74L239.62 43.18C247.72 40.72 254.32 38.08 259.9 34.84C259.9 38.92 259.84 44.44 259.84 47.92C259.84 50.02 259.66 52.78 259.48 54.52H264.94C264.82 52.66 264.64 50.02 264.64 47.92C264.64 43.9 264.7 36.7 264.7 31.78C270.22 27.94 275.26 22.9 278.26 19.3C279.22 18.22 280.54 16.84 281.62 15.7L278.5 12.7C277.48 13 276.1 13.06 274.72 13.06H264.82V9.22C264.82 7.54 264.94 5.26 265.18 3.94ZM284.44 43.96L287.56 39.88C281.98 36.1 278.74 34.18 273.1 31.18L269.98 34.72C275.62 37.72 279.22 40.12 284.44 43.96Z" fill="white" fill-opacity="0.1"/>
</svg>
